<?xml version="1.0" encoding="UTF-8" standalone="no"?>
<!-- Created with Inkscape (http://www.inkscape.org/) -->

<svg
   width="128.00002"
   height="127.99999"
   viewBox="0 0 33.86667 33.866665"
   version="1.1"
   id="svg1"
   xml:space="preserve"
   xmlns:xlink="http://www.w3.org/1999/xlink"
   xmlns="http://www.w3.org/2000/svg"
   xmlns:svg="http://www.w3.org/2000/svg"><defs
     id="defs1"><linearGradient
       id="linearGradient180"><stop
         style="stop-color:#e53e1c;stop-opacity:1;"
         offset="0"
         id="stop180" /><stop
         style="stop-color:#da0860;stop-opacity:1;"
         offset="1"
         id="stop181" /></linearGradient><linearGradient
       id="linearGradient177"><stop
         style="stop-color:#ffe949;stop-opacity:1;"
         offset="0"
         id="stop178" /><stop
         style="stop-color:#ea9018;stop-opacity:1;"
         offset="1"
         id="stop179" /></linearGradient><linearGradient
       id="linearGradient176"><stop
         style="stop-color:#2e216c;stop-opacity:1;"
         offset="0"
         id="stop176" /><stop
         style="stop-color:#00a0dc;stop-opacity:1;"
         offset="1"
         id="stop177" /></linearGradient><linearGradient
       xlink:href="#linearGradient176"
       id="linearGradient175"
       x1="-92.162971"
       y1="40.618141"
       x2="-77.48259"
       y2="44.340015"
       gradientUnits="userSpaceOnUse" /><linearGradient
       xlink:href="#linearGradient177"
       id="linearGradient179"
       x1="-105.41196"
       y1="23.364923"
       x2="-95.321678"
       y2="35.079124"
       gradientUnits="userSpaceOnUse" /><linearGradient
       xlink:href="#linearGradient180"
       id="linearGradient181"
       x1="-97.282005"
       y1="32.672001"
       x2="-97.420776"
       y2="52.449722"
       gradientUnits="userSpaceOnUse" /></defs><g
     id="layer1"
     transform="translate(-52.294426,-25.356885)"><g
       id="logo"
       transform="translate(52.294427,25.356884)"><rect
         style="fill:none;fill-opacity:1;stroke:none;stroke-width:0.132292;stroke-linecap:square;stroke-linejoin:miter;stroke-dasharray:none;stroke-dashoffset:0;stroke-opacity:1;paint-order:markers stroke fill"
         id="rect51"
         width="33.866665"
         height="33.866665"
         x="5.567627e-07"
         y="5.567627e-07"
         rx="0"
         ry="0" /><rect
         style="fill:none;fill-opacity:1;stroke:none;stroke-width:0.264583;stroke-linecap:square;stroke-linejoin:miter;stroke-dasharray:none;stroke-dashoffset:0;paint-order:markers stroke fill"
         id="rect33"
         width="33.866669"
         height="33.866665"
         x="-1.350586e-06"
         y="5.567627e-07"
         rx="0"
         ry="0" /><g
         id="g181"
         transform="translate(111.34924,-21.234563)"><path
           id="path170"
           style="fill:#ffffff;fill-opacity:1;stroke:none;stroke-width:0.264583;stroke-linecap:round;stroke-linejoin:round;stroke-dasharray:none;paint-order:markers stroke fill"
           d="m -87.942129,27.594765 -23.407091,12.7243 13.928444,12.130659 c 7.15e-4,6.9e-4 0.0014,0.0012 0.0021,0.0018 0.358908,0.305579 0.667152,0.471156 0.996337,0.513787 l 8.518729,-24.694339 c 2.44e-4,-9.02e-4 4.72e-4,-0.0018 7.41e-4,-0.0026 0.08851,-0.258326 0.07808,-0.48734 -0.03937,-0.673657 z" /><path
           id="path171"
           style="fill:url(#linearGradient175);fill-opacity:1;stroke:none;stroke-width:0.264583;stroke-linecap:round;stroke-linejoin:round;stroke-dasharray:none;paint-order:markers stroke fill"
           d="m -91.654057,39.142979 -4.766128,13.816202 c 0.304044,0.03919 0.625169,-0.02019 1.022056,-0.178011 l 0.0023,-9.45e-4 17.91324,-12.46116 z m -4.947031,13.78188 0.0015,0.005 c 0.0244,0.0066 0.04956,0.0069 0.07409,0.01207 -0.02521,-0.0054 -0.05051,-0.01028 -0.0756,-0.01713 z" /><path
           id="path172"
           style="fill:url(#linearGradient179);fill-opacity:1;stroke:none;stroke-width:0.264583;stroke-linecap:round;stroke-linejoin:round;stroke-dasharray:none;paint-order:markers stroke fill"
           d="m -105.41196,23.364923 3.56006,11.943786 13.908063,-7.71302 c -0.124144,-0.197145 -0.366277,-0.347248 -0.741075,-0.432373 l -1.25e-4,2.7e-5 z m 17.500305,4.295773 c 0.01213,0.02535 0.02678,0.04975 0.03532,0.07647 -0.0085,-0.02674 -0.02325,-0.05109 -0.03532,-0.07647 z m 0.05147,0.159356 c 0.0049,0.02683 0.01262,0.05267 0.01443,0.08063 -0.0016,-0.028 -0.0095,-0.05379 -0.01443,-0.08063 z m 0.0096,0.182145 c -0.0018,0.02554 -1.66e-4,0.04997 -0.0043,0.07632 0.0041,-0.02635 0.0025,-0.05075 0.0043,-0.07632 z m -8.75044,24.922663 0.0015,0.005 c 0.05866,0.0159 0.117669,0.02774 0.17728,0.03544 -0.0603,-0.0078 -0.119454,-0.02433 -0.178781,-0.04049 z" /><path
           id="path173"
           style="fill:#c83737;fill-opacity:1;stroke:none;stroke-width:0.264583;stroke-linecap:round;stroke-linejoin:round;stroke-dasharray:none;paint-order:markers stroke fill"
           d="m -87.942129,27.594765 -23.407091,12.7243 13.928444,12.130659 c 7.15e-4,6.9e-4 0.0014,0.0012 0.0021,0.0018 0.358908,0.305579 0.667152,0.471156 0.996337,0.513787 l 8.518729,-24.694339 c 2.44e-4,-9.02e-4 4.72e-4,-0.0018 7.41e-4,-0.0026 0.08851,-0.258326 0.07808,-0.48734 -0.03937,-0.673657 z" /><path
           id="path174"
           style="fill:url(#linearGradient181);fill-opacity:1;stroke:none;stroke-width:0.264583;stroke-linecap:round;stroke-linejoin:round;stroke-dasharray:none;paint-order:markers stroke fill"
           d="m -87.942129,27.594765 -23.407091,12.7243 13.928444,12.130659 c 7.15e-4,6.9e-4 0.0014,0.0012 0.0021,0.0018 0.358908,0.305579 0.667152,0.471156 0.996337,0.513787 l 8.518729,-24.694339 c 2.44e-4,-9.02e-4 4.72e-4,-0.0018 7.41e-4,-0.0026 0.08851,-0.258326 0.07808,-0.48734 -0.03937,-0.673657 z" /></g></g></g></svg>
